<?xml version="1.0" encoding="UTF-8"?>
<svg width="22px" height="22px" viewBox="0 0 22 22" version="1.1" xmlns="http://www.w3.org/2000/svg" xmlns:xlink="http://www.w3.org/1999/xlink">
    <title>menubar-will-block-color-dark</title>
    <g id="menubar-will-block-color-dark" stroke="none" stroke-width="1" fill="none" fill-rule="evenodd">
        <path d="M18.356,12.5 L18.9662719,14.7743906 C19.0578711,15.1167864 18.959872,15.4819819 18.7090743,15.7327789 L15.7331019,18.7083425 C15.4823042,18.9595394 15.1167076,19.0579382 14.7739108,18.9663394 L4.82520298,16.2999719 C4.48240616,16.2079731 4.21520863,15.9407763 4.12280949,15.5983805 L3.03401958,11.5328302 C2.94202043,11.1904344 3.03961953,10.8248388 3.2904172,10.5740419 L6.94598333,6.91808657 L10.5739497,3.29053088 C10.8247474,3.04013394 11.189944,2.94213514 11.5327408,3.03373402 L14.507,3.83 L11.690982,8.75965265 C11.2790677,9.48050258 11.2654367,10.3200738 11.5806848,11.023885 L11.1283446,11.0232364 L11.1243446,8.23807044 L7.44357872,8.23807044 L7.44477871,9.08286012 L8.89116531,9.85445069 L8.89116531,16.0163754 L11.1351445,16.0163754 L11.1307446,13.4136072 L9.94395555,12.7820149 L11.3967421,12.7808149 L13.4043235,16.0163754 L16.0058994,16.0163754 L13.854,12.5 L18.356,12.5 Z" id="Combined-Shape" fill="#FFFFFF"></path>
        <path d="M18.3023647,3.76357381 L21.4407749,9.25579159 C21.5702872,9.48243814 21.6384102,9.73895959 21.6384102,10 C21.6384102,10.8284271 20.9668373,11.5 20.1384102,11.5 L13.8615898,11.5 C13.6005494,11.5 13.344028,11.431877 13.1173814,11.3023647 C12.3981053,10.8913498 12.1482102,9.97506776 12.5592251,9.25579159 L15.6976353,3.76357381 C15.8305192,3.5310269 16.0232447,3.33830146 16.2557916,3.20541751 C16.9750678,2.79440255 17.8913498,3.04429764 18.3023647,3.76357381 Z" id="Combined-Shape" fill="#FFB920" fill-rule="nonzero"></path>
        <rect id="Rectangle" fill="#000000" x="16.5" y="8.5" width="1" height="1"></rect>
        <rect id="Rectangle" fill="#000000" x="16.5" y="5.5" width="1" height="2"></rect>
    </g>
</svg>