<?xml version="1.0" encoding="UTF-8"?>
<svg width="22px" height="22px" viewBox="0 0 22 22" version="1.1" xmlns="http://www.w3.org/2000/svg" xmlns:xlink="http://www.w3.org/1999/xlink">
    <title>menubar-default-dark</title>
    <g id="menubar-default-dark" stroke="none" stroke-width="1" fill="none" fill-rule="evenodd">
        <path d="M10.5739497,3.29053088 C10.8247474,3.04013394 11.189944,2.94213514 11.5327408,3.03373402 L15.5979032,4.12292071 C15.9403,4.2141196 16.2078975,4.48211633 16.2986967,4.82491214 L18.9662719,14.7743906 C19.0578711,15.1167864 18.959872,15.4819819 18.7090743,15.7327789 L15.7331019,18.7083425 C15.4823042,18.9595394 15.1167076,19.0579382 14.7739108,18.9663394 L4.82520298,16.2999719 C4.48240616,16.2079731 4.21520863,15.9407763 4.12280949,15.5983805 L3.03401958,11.5328302 C2.94202043,11.1904344 3.03961953,10.8248388 3.2904172,10.5740419 L6.94598333,6.91808657 Z M11.1243446,8.23807044 L7.44357872,8.23807044 L7.44477871,9.08286012 L8.89116531,9.85445069 L8.89116531,16.0163754 L11.1351445,16.0163754 L11.1307446,13.4136072 L9.94395555,12.7820149 L11.3967421,12.7808149 L13.4043235,16.0163754 L16.0058994,16.0163754 L13.6283214,12.1300229 L16.0058994,8.23847043 L13.4043235,8.23847043 L11.6407398,11.0232364 L11.1283446,11.0232364 L11.1243446,8.23807044 Z" id="Combined-Shape" fill="#FFFFFF"></path>
    </g>
</svg>