<?xml version="1.0" encoding="UTF-8"?>
<svg width="22px" height="22px" viewBox="0 0 22 22" version="1.1" xmlns="http://www.w3.org/2000/svg" xmlns:xlink="http://www.w3.org/1999/xlink">
    <title>menubar-blocked-color-light</title>
    <g id="menubar-blocked-color-light" stroke="none" stroke-width="1" fill="none" fill-rule="evenodd">
        <path d="M11.5327408,3.03373402 L13.3975909,3.53262265 C12.5321493,4.43155357 12,5.65363172 12,7 C12,7.88895714 12.231989,8.72373034 12.6387281,9.44708061 L11.6407398,11.0232364 L11.1283446,11.0232364 L11.1243446,8.23807044 L7.44357872,8.23807044 L7.44477871,9.08286012 L8.89116531,9.85445069 L8.89116531,16.0163754 L11.1351445,16.0163754 L11.1307446,13.4136072 L9.94395555,12.7820149 L11.3967421,12.7808149 L13.4043235,16.0163754 L16.0058994,16.0163754 L13.6283214,12.1300229 L14.2223362,11.1581046 C15.0168125,11.6898787 15.9721899,12 17,12 C17.4082291,12 17.8050315,11.9510769 18.1848642,11.858774 L18.9662719,14.7743906 C19.0578711,15.1167864 18.959872,15.4819819 18.7090743,15.7327789 L15.7331019,18.7083425 C15.4823042,18.9595394 15.1167076,19.0579382 14.7739108,18.9663394 L4.82520298,16.2999719 C4.48240616,16.2079731 4.21520863,15.9407763 4.12280949,15.5983805 L3.03401958,11.5328302 C2.94202043,11.1904344 3.03961953,10.8248388 3.2904172,10.5740419 L6.94598333,6.91808657 L10.5739497,3.29053088 C10.8247474,3.04013394 11.189944,2.94213514 11.5327408,3.03373402 Z" id="Combined-Shape" fill="#000000"></path>
        <g id="Group" transform="translate(13.000000, 3.000000)">
            <circle id="Oval" fill="#FF4A40" cx="4" cy="4" r="4"></circle>
            <path d="M5.14644661,2.14644661 L5.85355339,2.85355339 L4.70744661,4.00044661 L5.85355339,5.14644661 L5.14644661,5.85355339 L4.00044661,4.70744661 L2.85355339,5.85355339 L2.14644661,5.14644661 L3.29344661,4.00044661 L2.14644661,2.85355339 L2.85355339,2.14644661 L4.00044661,3.29344661 L5.14644661,2.14644661 Z" id="Combined-Shape" fill="#FFFFFF" fill-rule="nonzero"></path>
        </g>
    </g>
</svg>